<?xml version="1.0" encoding="UTF-8" standalone="no"?>
<svg
   xmlns:dc="http://purl.org/dc/elements/1.1/"
   xmlns:cc="http://creativecommons.org/ns#"
   xmlns:rdf="http://www.w3.org/1999/02/22-rdf-syntax-ns#"
   xmlns:svg="http://www.w3.org/2000/svg"
   xmlns="http://www.w3.org/2000/svg"
   xmlns:sodipodi="http://sodipodi.sourceforge.net/DTD/sodipodi-0.dtd"
   xmlns:inkscape="http://www.inkscape.org/namespaces/inkscape"
   version="1.1"
   id="svg2"
   xml:space="preserve"
   width="2899"
   height="1100"
   viewBox="0 0 2899 1100"
   sodipodi:docname="tamo-logo-primary.svg"
   inkscape:version="1.0.2 (1.0.2+r75+1)"><metadata
     id="metadata8"><rdf:RDF><cc:Work
         rdf:about=""><dc:format>image/svg+xml</dc:format><dc:type
           rdf:resource="http://purl.org/dc/dcmitype/StillImage" /><dc:title></dc:title></cc:Work></rdf:RDF></metadata><defs
     id="defs6"><clipPath
       clipPathUnits="userSpaceOnUse"
       id="clipPath18"><path
         d="M 0,2480 H 2480 V 0 H 0 Z"
         id="path16" /></clipPath><clipPath
       clipPathUnits="userSpaceOnUse"
       id="clipPath26"><path
         d="M 593.245,953.573 H 2103.86 V 812.581 H 593.245 Z"
         id="path24" /></clipPath></defs><sodipodi:namedview
     pagecolor="#ffffff"
     bordercolor="#666666"
     borderopacity="1"
     objecttolerance="10"
     gridtolerance="10"
     guidetolerance="10"
     inkscape:pageopacity="0"
     inkscape:pageshadow="2"
     inkscape:window-width="1920"
     inkscape:window-height="1054"
     id="namedview4"
     inkscape:document-rotation="0"
     showgrid="false"
     width="3839px"
     inkscape:zoom="0.22106854"
     inkscape:cx="888.86461"
     inkscape:cy="205.81853"
     inkscape:window-x="1920"
     inkscape:window-y="0"
     inkscape:window-maximized="1"
     inkscape:current-layer="g10"
     inkscape:pagecheckerboard="true" /><g
     id="g10"
     inkscape:groupmode="layer"
     inkscape:label="TAMO"
     transform="matrix(1.3333333,0,0,-1.3333333,0,3306.6667)"><g
       id="g12"
       transform="translate(-165.44124,676.22637)"><g
         id="g14"
         clip-path="url(#clipPath18)"><g
           id="g20"><g
             id="g22" /><g
             id="g34"><g
               clip-path="url(#clipPath26)"
               id="g32"><text
                 transform="matrix(1,0,0,-1,593.2446,846.1875)"
                 style="font-variant:normal;font-weight:bold;font-stretch:normal;font-size:126.338px;font-family:Montserrat;-inkscape-font-specification:Montserrat-Bold;writing-mode:lr-tb;fill:#b49569;fill-opacity:1;fill-rule:nonzero;stroke:none;"
                 id="text30"><tspan
                   x="0 251.15895 504.84464 759.54108 1007.9206 1261.6063"
                   y="0"
                   sodipodi:role="line"
                   id="tspan28" /></text></g></g></g><g
           id="g36"
           transform="translate(1947.2256,1495.6665)"><path
             d="m 0,0 c -36.91,-10.378 -47.561,-66.505 -12.801,-87.135 53.361,-31.669 135.651,-20.5 135.651,-20.5 l 30.71,120.45 C 153.56,12.815 55.35,15.563 0,0 m -1098.464,147.191 c -79.646,0 -144.212,-64.65 -144.212,-144.4 V -96.49 H -954.25 V 1.671 c 0,7.016 0.27,13.965 0.81,20.847 -9.92,70.411 -72.065,124.673 -145.024,124.673 M 119.01,-124.294 c -78.191,-5.984 -119.74,10.192 -138.79,21.678 -0.741,-145.009 -1.981,-386.109 -1.981,-386.109 l -115.979,-1.12 V 5.461 c 0,79.751 -64.561,144.4 -144.21,144.4 -79.651,0 -144.21,-64.65 -144.21,-144.4 v -494.766 l -36.51,0.341 -82.42,-0.771 V 2.79 c 0,79.752 -64.57,144.4 -144.21,144.4 -79.64,0 -144.22,-64.65 -144.22,-144.4 v -494.765 l -120.73,1.12 v 276 l -288.43,1.606 v -278.726 l -120.737,1.12 V 1.671 c 0,7.016 0.272,13.965 0.816,20.847 -9.927,70.411 -72.068,124.673 -145.027,124.673 -79.646,0 -144.212,-64.65 -144.212,-144.4 v -99.337 l -120.736,-1.552 v 99.77 c 0,145.9 118.12,264.175 263.829,264.175 79.39,0.062 154.565,-35.719 204.58,-97.373 91.806,112.987 257.822,130.159 370.809,38.354 14.069,-11.432 26.922,-24.285 38.354,-38.354 91.803,112.988 257.819,130.162 370.808,38.358 13.585,-11.038 26.037,-23.402 37.172,-36.909 49.232,62.446 124.434,98.799 203.954,98.592 80.11,0.059 155.886,-36.372 205.87,-98.977 50.036,61.024 124.815,96.374 203.729,96.306 230.511,0 256.5,-152.112 256.5,-192.753 0,-7.253 8.45,-176.535 -264.019,-197.385"
             style="fill:#b49569;fill-opacity:1;fill-rule:evenodd;stroke:none"
             id="path38" /></g></g></g></g></svg>
